<?xml version="1.0" standalone="no"?>
<!DOCTYPE svg PUBLIC "-//W3C//DTD SVG 20010904//EN"
 "http://www.w3.org/TR/2001/REC-SVG-20010904/DTD/svg10.dtd">
<svg version="1.0" xmlns="http://www.w3.org/2000/svg"
 width="260.000000pt" height="260.000000pt" viewBox="0 0 260.000000 260.000000"
 preserveAspectRatio="xMidYMid meet">
<metadata>
Created by potrace 1.11, written by Peter Selinger 2001-2013
</metadata>
<g transform="translate(0.000000,260.000000) scale(0.100000,-0.100000)"
fill="#000000" stroke="none">
<path d="M330 2295 l0 -54 104 -3 105 -3 -115 -189 c-93 -154 -114 -196 -114
-227 l0 -39 191 0 190 0 -3 53 -3 52 -113 3 -112 3 16 31 c9 17 58 102 110
190 76 129 94 166 94 198 l0 40 -175 0 -175 0 0 -55z"/>
<path d="M1150 2197 c0 -13 -6 -14 -35 -6 -77 22 -172 -36 -195 -119 -5 -20
-10 -64 -10 -97 0 -134 78 -214 195 -202 80 8 95 19 95 72 l0 43 -39 -15 c-53
-21 -111 -11 -111 19 0 12 -7 30 -17 40 -15 17 -12 18 92 18 l108 0 -6 79 c-7
88 -23 136 -56 165 -18 16 -21 17 -21 3z m-41 -101 c7 -8 14 -26 17 -40 4 -25
3 -26 -51 -26 -50 0 -55 2 -55 22 0 46 62 77 89 44z"/>
<path d="M2045 2191 c-102 -26 -154 -112 -140 -232 10 -86 41 -139 95 -166
104 -53 212 -5 250 111 19 60 8 194 -20 245 -22 39 -50 61 -50 40 0 -6 -8 -8
-17 -5 -39 11 -90 14 -118 7z m91 -119 c8 -10 13 -44 14 -83 0 -76 -24 -119
-66 -119 -19 0 -29 11 -50 52 -47 93 -15 189 60 174 16 -3 35 -14 42 -24z"/>
<path d="M1477 2184 c-4 -4 -7 -97 -7 -206 l0 -198 49 0 48 0 5 125 c7 151 18
175 78 175 l40 0 0 55 c0 53 -1 55 -28 55 -33 0 -72 -25 -73 -48 -1 -9 -4 -3
-8 13 -6 27 -10 30 -51 33 -25 2 -49 0 -53 -4z"/>
<path d="M812 1608 c-14 -14 -16 -38 -3 -38 5 0 16 -3 24 -6 18 -7 31 37 14
48 -16 10 -21 10 -35 -4z"/>
<path d="M698 1515 c-4 -19 -1 -25 13 -25 14 0 19 7 19 25 0 15 -6 25 -14 25
-7 0 -16 -11 -18 -25z"/>
<path d="M790 1506 c0 -32 36 -42 44 -13 5 21 -8 37 -31 37 -7 0 -13 -11 -13
-24z"/>
<path d="M1046 1474 c-9 -8 -16 -25 -16 -36 0 -17 3 -18 15 -8 8 6 23 9 35 5
16 -5 20 -2 20 18 0 14 -7 28 -16 31 -21 8 -20 8 -38 -10z"/>
<path d="M1296 1438 c-24 -34 -21 -50 8 -37 17 8 29 8 45 0 19 -10 21 -9 21
12 0 47 -47 63 -74 25z"/>
<path d="M1650 1385 c-5 -14 -10 -41 -10 -58 0 -43 -13 -59 -41 -55 -22 3 -24
7 -21 56 l4 52 -76 0 c-46 0 -76 -4 -76 -10 0 -6 -11 -22 -25 -35 -19 -20 -34
-25 -76 -25 -46 0 -55 4 -85 35 l-33 35 -95 0 c-82 0 -96 -2 -96 -16 0 -13 -6
-15 -27 -9 -15 3 -30 10 -33 15 -7 10 -168 13 -602 12 l-358 -2 0 -690 0 -690
1300 0 1300 0 0 690 0 690 -349 0 -350 0 -7 -70 -7 -70 -33 0 -33 0 6 53 c11
87 10 92 -16 95 -30 5 -38 -8 -46 -81 -7 -54 -9 -58 -29 -53 -11 3 -25 6 -29
6 -5 0 -7 33 -5 73 3 68 2 72 -19 75 -17 3 -26 -3 -33 -23z m-834 -443 c35
-23 39 -87 8 -113 -21 -17 -66 -14 -81 7 -18 25 -16 74 4 96 16 18 49 23 69
10z m994 -116 l0 -124 31 30 c27 28 34 30 77 24 54 -7 87 -39 99 -96 4 -19 7
-100 8 -180 l0 -145 -52 -3 -52 -3 -3 151 c-3 136 -5 153 -22 166 -25 18 -37
18 -62 0 -17 -13 -19 -30 -22 -166 l-3 -151 -52 3 -52 3 -3 308 -2 307 55 0
55 0 0 -124z m-1482 -148 l2 -238 85 0 85 0 0 -55 0 -55 -140 0 -140 0 0 296
0 295 53 -3 52 -3 3 -237z m2092 131 l0 -59 35 0 35 0 0 -50 0 -50 -35 0 -35
0 0 -97 c0 -111 6 -128 44 -121 25 5 26 4 26 -44 0 -44 -3 -50 -27 -59 -37
-15 -99 7 -127 44 -17 23 -21 46 -24 152 -4 124 -5 125 -28 125 -22 0 -24 4
-24 50 0 46 2 50 24 50 22 0 25 5 28 46 3 45 5 47 48 64 25 10 48 16 53 13 4
-2 7 -31 7 -64z m-1116 -75 c25 -26 26 -26 26 -5 0 19 5 21 56 21 l56 0 -5
-217 c-3 -121 -10 -235 -16 -256 -15 -48 -64 -104 -109 -122 -39 -17 -128 -20
-166 -5 -24 9 -26 15 -26 65 0 30 2 55 4 55 2 0 17 -7 32 -15 78 -40 160 1
171 85 l6 45 -24 -22 c-57 -52 -125 -49 -173 7 -37 45 -49 93 -44 184 7 131
59 205 144 206 32 0 48 -6 68 -26z m-466 -191 l-3 -208 -50 0 -50 0 -3 208 -2
207 55 0 55 0 -2 -207z"/>
<path d="M1221 634 c-54 -68 -29 -204 38 -204 45 0 65 31 69 108 3 57 1 71
-18 95 -27 34 -62 35 -89 1z"/>
<path d="M1290 1370 c0 -19 51 -23 68 -6 15 15 13 16 -26 16 -23 0 -42 -4 -42
-10z"/>
</g>
</svg>
